<mxfile host="65bd71144e">
    <diagram id="RGaz-mn3VMSKebLSgtgN" name="Seite-1">
        <mxGraphModel dx="1057" dy="466" grid="1" gridSize="10" guides="1" tooltips="1" connect="1" arrows="1" fold="1" page="1" pageScale="1" pageWidth="827" pageHeight="1169" math="0" shadow="0">
            <root>
                <mxCell id="0"/>
                <mxCell id="1" parent="0"/>
                <mxCell id="2" value="Pizzeria" style="shape=umlFrame;whiteSpace=wrap;html=1;" vertex="1" parent="1">
                    <mxGeometry x="230" y="390" width="400" height="660" as="geometry"/>
                </mxCell>
                <mxCell id="3" value="Fahrer" style="shape=umlActor;verticalLabelPosition=bottom;verticalAlign=top;html=1;" vertex="1" parent="1">
                    <mxGeometry x="120" y="840" width="30" height="60" as="geometry"/>
                </mxCell>
                <mxCell id="20" style="edgeStyle=none;html=1;exitX=0.5;exitY=0.5;exitDx=0;exitDy=0;exitPerimeter=0;" edge="1" parent="1" source="4" target="15">
                    <mxGeometry relative="1" as="geometry"/>
                </mxCell>
                <mxCell id="4" value="Kunde" style="shape=umlActor;verticalLabelPosition=bottom;verticalAlign=top;html=1;" vertex="1" parent="1">
                    <mxGeometry x="710" y="430" width="30" height="60" as="geometry"/>
                </mxCell>
                <mxCell id="5" value="Mitarbeiter" style="shape=umlActor;verticalLabelPosition=bottom;verticalAlign=top;html=1;" vertex="1" parent="1">
                    <mxGeometry x="90" y="400" width="30" height="60" as="geometry"/>
                </mxCell>
                <mxCell id="15" value="Bestellanruf" style="shape=ellipse;html=1;strokeWidth=1;fontStyle=1;whiteSpace=wrap;align=center;perimeter=ellipsePerimeter;" vertex="1" parent="1">
                    <mxGeometry x="380" y="440" width="120" height="60" as="geometry"/>
                </mxCell>
                <mxCell id="19" value="" style="edgeStyle=none;html=1;endArrow=none;verticalAlign=bottom;entryX=0.5;entryY=0.5;entryDx=0;entryDy=0;entryPerimeter=0;" edge="1" parent="1" source="15" target="5">
                    <mxGeometry width="160" relative="1" as="geometry">
                        <mxPoint x="500" y="439.58" as="sourcePoint"/>
                        <mxPoint x="660" y="439.58" as="targetPoint"/>
                    </mxGeometry>
                </mxCell>
                <mxCell id="21" value="&lt;font style=&quot;font-size: 9px;&quot;&gt;Kundendaten erfassen&lt;/font&gt;" style="shape=ellipse;html=1;strokeWidth=1;fontStyle=1;whiteSpace=wrap;align=center;perimeter=ellipsePerimeter;" vertex="1" parent="1">
                    <mxGeometry x="354" y="600" width="120" height="60" as="geometry"/>
                </mxCell>
                <mxCell id="28" value="" style="edgeStyle=none;html=1;endArrow=none;verticalAlign=bottom;fontSize=9;exitX=1;exitY=0.5;exitDx=0;exitDy=0;entryX=0.5;entryY=0.5;entryDx=0;entryDy=0;entryPerimeter=0;" edge="1" parent="1" source="21" target="4">
                    <mxGeometry width="160" relative="1" as="geometry">
                        <mxPoint x="570" y="470" as="sourcePoint"/>
                        <mxPoint x="730" y="470" as="targetPoint"/>
                        <Array as="points">
                            <mxPoint x="660" y="500"/>
                        </Array>
                    </mxGeometry>
                </mxCell>
                <mxCell id="29" value="Falls Kunde neu" style="shape=note;size=15;spacingLeft=5;align=left;whiteSpace=wrap;strokeWidth=1;fontSize=9;" vertex="1" parent="1">
                    <mxGeometry x="250" y="520" width="90" height="40" as="geometry"/>
                </mxCell>
                <mxCell id="30" value="&amp;lt;&amp;lt;extend&amp;gt;&amp;gt;" style="align=right;html=1;verticalAlign=bottom;rounded=0;labelBackgroundColor=none;endArrow=open;endSize=12;dashed=1;fontSize=9;entryX=0.5;entryY=1;entryDx=0;entryDy=0;" edge="1" parent="1">
                    <mxGeometry x="-0.0372" y="10" relative="1" as="geometry">
                        <mxPoint x="430" y="500" as="targetPoint"/>
                        <mxPoint x="409.9323277975311" y="600.1469955995203" as="sourcePoint"/>
                        <mxPoint as="offset"/>
                    </mxGeometry>
                </mxCell>
                <mxCell id="31" value="" style="edgeStyle=none;html=1;endArrow=none;rounded=0;labelBackgroundColor=none;dashed=1;exitX=0;exitY=0;fontSize=9;exitDx=90;exitDy=27.5;exitPerimeter=0;" edge="1" source="29" parent="1">
                    <mxGeometry relative="1" as="geometry">
                        <mxPoint x="420" y="560" as="targetPoint"/>
                    </mxGeometry>
                </mxCell>
                <mxCell id="34" value="&lt;font size=&quot;1&quot;&gt;&amp;nbsp;Bestellung aufnehmen&lt;/font&gt;" style="shape=ellipse;html=1;strokeWidth=1;fontStyle=1;whiteSpace=wrap;align=center;perimeter=ellipsePerimeter;" vertex="1" parent="1">
                    <mxGeometry x="530" y="630" width="120" height="60" as="geometry"/>
                </mxCell>
                <mxCell id="35" value="&lt;font size=&quot;1&quot;&gt;Auslieferung&lt;/font&gt;" style="shape=ellipse;html=1;strokeWidth=1;fontStyle=1;whiteSpace=wrap;align=center;perimeter=ellipsePerimeter;" vertex="1" parent="1">
                    <mxGeometry x="270" y="770" width="120" height="60" as="geometry"/>
                </mxCell>
                <mxCell id="36" value="&lt;font size=&quot;1&quot;&gt;Selbstabholung&lt;/font&gt;" style="shape=ellipse;html=1;strokeWidth=1;fontStyle=1;whiteSpace=wrap;align=center;perimeter=ellipsePerimeter;" vertex="1" parent="1">
                    <mxGeometry x="460" y="790" width="120" height="60" as="geometry"/>
                </mxCell>
                <mxCell id="37" value="&amp;lt;&amp;lt;include&amp;gt;&amp;gt;" style="edgeStyle=none;html=1;endArrow=open;verticalAlign=bottom;dashed=1;labelBackgroundColor=none;fontSize=9;entryX=0.596;entryY=0.99;entryDx=0;entryDy=0;entryPerimeter=0;" edge="1" parent="1" source="34" target="15">
                    <mxGeometry x="0.2152" y="-18" width="160" relative="1" as="geometry">
                        <mxPoint x="470" y="570" as="sourcePoint"/>
                        <mxPoint x="630" y="570" as="targetPoint"/>
                        <mxPoint as="offset"/>
                    </mxGeometry>
                </mxCell>
                <mxCell id="38" value="" style="edgeStyle=none;html=1;endArrow=none;verticalAlign=bottom;fontSize=9;exitX=0.5;exitY=0.5;exitDx=0;exitDy=0;exitPerimeter=0;" edge="1" parent="1" source="5">
                    <mxGeometry width="160" relative="1" as="geometry">
                        <mxPoint x="200" y="620" as="sourcePoint"/>
                        <mxPoint x="360" y="620" as="targetPoint"/>
                        <Array as="points">
                            <mxPoint x="170" y="490"/>
                            <mxPoint x="210" y="570"/>
                        </Array>
                    </mxGeometry>
                </mxCell>
                <mxCell id="40" value="Lieber selber abholen" style="shape=note;size=15;spacingLeft=5;align=left;whiteSpace=wrap;strokeWidth=1;fontSize=9;" vertex="1" parent="1">
                    <mxGeometry x="650" y="740" width="110" height="40" as="geometry"/>
                </mxCell>
                <mxCell id="41" value="&amp;lt;&amp;lt;extend&amp;gt;&amp;gt;" style="align=right;html=1;verticalAlign=bottom;rounded=0;labelBackgroundColor=none;endArrow=open;endSize=12;dashed=1;fontSize=9;entryX=0.5;entryY=1;entryDx=0;entryDy=0;exitX=0.691;exitY=0.05;exitDx=0;exitDy=0;exitPerimeter=0;" edge="1" parent="1" source="36" target="34">
                    <mxGeometry x="-0.3446" y="-2" relative="1" as="geometry">
                        <mxPoint x="650" y="769" as="targetPoint"/>
                        <mxPoint x="810" y="769" as="sourcePoint"/>
                        <mxPoint as="offset"/>
                    </mxGeometry>
                </mxCell>
                <mxCell id="42" value="" style="edgeStyle=none;html=1;endArrow=none;rounded=0;labelBackgroundColor=none;dashed=1;fontSize=9;exitX=0;exitY=0.5;exitDx=0;exitDy=0;exitPerimeter=0;" edge="1" source="40" parent="1">
                    <mxGeometry relative="1" as="geometry">
                        <mxPoint x="570" y="730" as="targetPoint"/>
                        <mxPoint x="660" y="710" as="sourcePoint"/>
                    </mxGeometry>
                </mxCell>
                <mxCell id="46" value="Lieferugn gewÃ¼sncht" style="shape=note;size=15;spacingLeft=5;align=left;whiteSpace=wrap;strokeWidth=1;fontSize=9;" vertex="1" parent="1">
                    <mxGeometry x="200" y="680" width="110" height="40" as="geometry"/>
                </mxCell>
                <mxCell id="47" value="&amp;lt;&amp;lt;extend&amp;gt;&amp;gt;" style="align=right;html=1;verticalAlign=bottom;rounded=0;labelBackgroundColor=none;endArrow=open;endSize=12;dashed=1;fontSize=9;exitX=0.792;exitY=0.081;exitDx=0;exitDy=0;exitPerimeter=0;" edge="1" parent="1" source="35" target="34">
                    <mxGeometry x="0.024" y="19" relative="1" as="geometry">
                        <mxPoint x="140" y="799" as="targetPoint"/>
                        <mxPoint x="300" y="799" as="sourcePoint"/>
                        <mxPoint as="offset"/>
                    </mxGeometry>
                </mxCell>
                <mxCell id="48" value="" style="edgeStyle=none;html=1;endArrow=none;rounded=0;labelBackgroundColor=none;dashed=1;exitX=0;exitY=0;fontSize=9;exitDx=110;exitDy=27.5;exitPerimeter=0;" edge="1" source="46" parent="1">
                    <mxGeometry relative="1" as="geometry">
                        <mxPoint x="490" y="710" as="targetPoint"/>
                        <Array as="points">
                            <mxPoint x="440" y="690"/>
                        </Array>
                    </mxGeometry>
                </mxCell>
                <mxCell id="50" value="SMS senden" style="shape=ellipse;html=1;strokeWidth=1;fontStyle=1;whiteSpace=wrap;align=center;perimeter=ellipsePerimeter;fontSize=9;" vertex="1" parent="1">
                    <mxGeometry x="294" y="920" width="120" height="60" as="geometry"/>
                </mxCell>
                <mxCell id="51" value="" style="edgeStyle=none;html=1;endArrow=none;verticalAlign=bottom;fontSize=9;entryX=0.042;entryY=0.702;entryDx=0;entryDy=0;entryPerimeter=0;exitX=0.5;exitY=0.5;exitDx=0;exitDy=0;exitPerimeter=0;" edge="1" parent="1" source="3" target="35">
                    <mxGeometry width="160" relative="1" as="geometry">
                        <mxPoint x="160" y="809.5" as="sourcePoint"/>
                        <mxPoint x="270" y="810" as="targetPoint"/>
                        <Array as="points"/>
                    </mxGeometry>
                </mxCell>
                <mxCell id="52" value="&amp;lt;&amp;lt;include&amp;gt;&amp;gt;" style="edgeStyle=none;html=1;endArrow=open;verticalAlign=bottom;dashed=1;labelBackgroundColor=none;fontSize=9;entryX=0.403;entryY=-0.041;entryDx=0;entryDy=0;entryPerimeter=0;" edge="1" parent="1" source="35" target="50">
                    <mxGeometry x="0.2584" y="31" width="160" relative="1" as="geometry">
                        <mxPoint x="280" y="860" as="sourcePoint"/>
                        <mxPoint x="440" y="860" as="targetPoint"/>
                        <mxPoint as="offset"/>
                    </mxGeometry>
                </mxCell>
                <mxCell id="53" value="" style="edgeStyle=none;html=1;endArrow=none;verticalAlign=bottom;fontSize=9;exitX=0.5;exitY=0.5;exitDx=0;exitDy=0;exitPerimeter=0;" edge="1" parent="1" source="3" target="50">
                    <mxGeometry width="160" relative="1" as="geometry">
                        <mxPoint x="140" y="880" as="sourcePoint"/>
                        <mxPoint x="190" y="1000" as="targetPoint"/>
                    </mxGeometry>
                </mxCell>
            </root>
        </mxGraphModel>
    </diagram>
</mxfile>